<svg xmlns="http://www.w3.org/2000/svg" viewBox="0 0 1600 1600">
    <title>IS3 Icon</title>

    <g transform="translate(0,1600) scale(0.1,-0.1)">
        <path d="M7325 11700 c-38 -5 -155 -11 -260 -14 -104 -4 -221 -11 -260 -17
-64 -9 -116 -14 -413 -39 -112 -9 -253 -26 -347 -40 -33 -5 -157 -23 -275 -40
-217 -31 -319 -49 -420 -75 -66 -16 -168 -37 -310 -63 -58 -11 -159 -33 -225
-50 -66 -16 -158 -38 -205 -48 -47 -10 -114 -29 -150 -42 -62 -23 -139 -44
-225 -61 -22 -5 -67 -18 -100 -30 -33 -12 -106 -35 -163 -51 -57 -17 -144 -47
-195 -66 -51 -20 -112 -42 -137 -49 -25 -7 -67 -21 -95 -32 -27 -11 -77 -30
-110 -42 -33 -13 -112 -45 -175 -72 -63 -27 -119 -49 -123 -49 -4 0 -35 -13
-70 -29 -34 -16 -80 -37 -102 -46 -60 -26 -184 -84 -240 -112 -144 -73 -236
-123 -262 -140 -15 -11 -39 -24 -53 -28 -14 -4 -54 -27 -90 -50 -36 -23 -76
-48 -90 -55 -45 -23 -242 -149 -356 -228 -230 -159 -524 -409 -692 -588 -46
-49 -100 -107 -121 -129 -21 -22 -44 -50 -50 -63 -7 -12 -31 -44 -54 -71 -55
-63 -135 -174 -155 -214 -9 -18 -30 -52 -48 -77 -17 -25 -53 -88 -78 -140 -26
-52 -51 -102 -56 -112 -18 -34 -70 -175 -90 -248 -12 -41 -28 -97 -37 -125
-45 -151 -52 -223 -52 -490 0 -213 3 -276 18 -350 17 -84 74 -288 106 -380 49
-142 169 -371 272 -518 12 -18 35 -50 49 -72 37 -54 127 -167 187 -235 77 -86
254 -267 277 -283 12 -8 52 -44 88 -79 37 -35 85 -77 107 -94 37 -27 116 -90
210 -168 22 -18 54 -40 72 -49 17 -9 61 -38 96 -64 36 -27 102 -70 146 -98 45
-27 111 -69 147 -92 35 -24 90 -57 122 -73 31 -17 91 -49 132 -71 159 -86 510
-259 524 -259 8 0 62 -24 181 -80 44 -21 91 -41 105 -45 14 -4 61 -22 105 -40
44 -18 107 -40 140 -50 33 -9 87 -30 120 -45 33 -15 83 -35 110 -44 28 -8 119
-38 203 -66 84 -27 160 -50 170 -50 10 0 49 -11 87 -24 139 -46 201 -65 275
-81 41 -9 111 -27 156 -41 44 -13 125 -33 180 -44 54 -10 128 -26 164 -34 36
-8 90 -19 120 -26 30 -6 85 -18 121 -26 37 -8 75 -14 85 -14 11 0 48 -6 84
-14 63 -14 89 -19 250 -50 41 -8 131 -22 200 -31 135 -17 299 -40 396 -55 33
-6 96 -10 140 -10 43 -1 115 -7 159 -15 44 -8 109 -15 145 -15 36 0 117 -6
180 -14 63 -8 203 -21 310 -27 266 -18 1277 -24 1445 -9 72 6 209 15 305 20
96 6 198 14 225 19 28 6 84 10 125 11 41 0 116 7 165 15 50 8 119 15 155 15
36 0 131 9 210 21 171 24 326 46 395 54 75 10 314 54 540 100 39 8 93 18 120
24 149 27 436 92 475 106 25 9 95 27 155 40 61 13 155 40 210 59 55 19 132 42
170 51 39 8 120 33 180 54 61 21 137 46 170 56 33 10 87 30 120 45 33 15 87
35 120 45 33 9 94 32 135 50 41 18 93 38 115 45 22 7 72 28 110 47 39 20 99
46 135 60 131 50 714 346 785 399 17 12 59 39 95 60 36 20 81 50 100 66 19 15
40 28 46 28 12 0 110 69 269 190 369 280 650 558 842 833 12 18 34 48 48 67
107 143 282 498 315 640 5 19 20 79 34 133 83 313 85 633 5 942 -17 66 -35
137 -40 158 -5 21 -13 45 -18 55 -18 36 -41 93 -41 102 0 5 -19 49 -41 97 -23
49 -50 108 -61 133 -11 25 -28 54 -38 65 -10 11 -35 52 -56 90 -21 39 -49 84
-63 101 -14 18 -44 57 -65 88 -22 31 -43 56 -47 56 -5 0 -16 14 -24 31 -28 54
-259 301 -408 437 -110 101 -345 288 -462 368 -201 137 -350 234 -359 234 -4
0 -42 22 -85 50 -42 27 -95 57 -116 66 -22 9 -51 24 -65 34 -29 20 -279 148
-395 202 -255 118 -656 279 -815 328 -41 13 -79 26 -85 31 -9 7 -110 40 -345
114 -58 18 -139 40 -180 49 -41 10 -113 30 -160 46 -102 35 -148 47 -248 66
-43 8 -111 23 -152 35 -92 25 -194 47 -280 58 -36 5 -78 14 -93 20 -16 6 -40
11 -55 11 -14 0 -44 6 -67 14 -22 8 -76 21 -120 30 -69 13 -163 27 -575 86
-124 17 -246 32 -350 41 -58 5 -172 16 -255 24 -82 8 -242 19 -355 25 -113 5
-258 14 -322 20 -132 11 -1225 11 -1333 0z m1425 -125 c307 -14 393 -20 585
-46 44 -6 132 -15 195 -19 158 -11 389 -37 485 -54 215 -39 270 -48 390 -65
161 -23 245 -38 310 -56 28 -7 91 -21 140 -30 138 -25 236 -46 280 -60 47 -15
112 -32 285 -75 270 -66 288 -72 700 -206 58 -19 128 -42 155 -50 28 -9 77
-29 110 -44 33 -15 103 -42 155 -60 52 -18 104 -38 115 -45 11 -6 52 -22 90
-35 39 -12 88 -33 110 -45 22 -13 70 -35 107 -50 37 -14 99 -44 138 -65 39
-21 81 -42 93 -46 28 -8 243 -121 277 -144 14 -9 70 -41 125 -70 55 -28 163
-94 240 -145 77 -51 150 -98 162 -104 12 -6 49 -34 82 -61 33 -28 63 -50 67
-50 4 0 32 -20 63 -45 31 -25 80 -64 110 -88 225 -176 503 -466 665 -692 58
-82 106 -155 106 -163 0 -5 13 -26 29 -48 15 -21 41 -68 57 -104 15 -36 38
-81 51 -100 12 -19 33 -69 47 -110 13 -41 33 -97 45 -125 45 -101 93 -415 93
-600 0 -191 -47 -491 -97 -615 -15 -36 -35 -90 -45 -120 -19 -58 -123 -265
-184 -365 -148 -243 -479 -621 -652 -744 -19 -13 -34 -28 -34 -32 0 -4 -37
-36 -81 -71 -45 -34 -98 -76 -119 -93 -42 -34 -184 -135 -279 -198 -108 -72
-243 -157 -248 -157 -3 0 -42 -22 -87 -48 -132 -79 -259 -148 -296 -162 -19
-8 -60 -28 -90 -46 -30 -17 -66 -35 -80 -39 -14 -4 -59 -24 -100 -45 -105 -53
-312 -140 -570 -240 -127 -49 -145 -55 -275 -98 -66 -22 -145 -49 -175 -61
-30 -12 -71 -25 -90 -30 -104 -26 -166 -44 -175 -51 -5 -4 -62 -20 -125 -35
-63 -15 -175 -45 -249 -67 -129 -38 -168 -47 -293 -67 -31 -5 -72 -14 -90 -20
-92 -29 -182 -50 -268 -61 -52 -6 -138 -21 -190 -32 -144 -29 -256 -48 -350
-58 -91 -9 -177 -22 -305 -46 -44 -8 -98 -14 -120 -14 -22 0 -62 -7 -89 -15
-27 -8 -81 -15 -120 -15 -39 0 -98 -5 -131 -11 -33 -5 -143 -14 -245 -19 -102
-5 -241 -14 -310 -19 -309 -24 -857 -34 -1229 -22 -201 7 -420 16 -486 22 -66
5 -205 14 -310 19 -104 6 -212 15 -240 20 -27 5 -85 9 -128 9 -43 1 -106 8
-140 15 -59 14 -145 28 -287 46 -36 4 -96 13 -135 19 -38 6 -108 15 -155 22
-47 6 -139 21 -205 34 -113 22 -253 46 -354 60 -41 5 -88 17 -179 46 -19 6
-57 15 -85 19 -108 16 -175 32 -262 60 -49 17 -139 41 -200 54 -60 14 -137 35
-170 46 -33 12 -78 25 -100 30 -22 5 -94 27 -160 50 -66 22 -176 59 -244 81
-69 22 -130 44 -135 48 -6 5 -27 12 -46 16 -19 4 -41 11 -50 16 -14 8 -78 34
-265 109 -147 59 -262 108 -310 133 -79 41 -323 157 -330 157 -4 0 -19 8 -33
19 -15 10 -62 37 -105 60 -43 22 -97 52 -120 66 -23 15 -91 56 -152 91 -60 36
-126 78 -145 93 -19 15 -48 35 -65 43 -16 9 -95 65 -174 125 -79 59 -157 118
-174 131 -17 12 -54 44 -82 70 -28 26 -96 87 -151 137 -54 49 -119 111 -144
139 -25 27 -72 79 -106 115 -66 72 -192 235 -238 309 -17 26 -46 72 -66 102
-20 30 -49 82 -64 115 -16 33 -38 74 -51 90 -12 17 -34 64 -48 105 -70 207
-87 261 -102 335 -9 44 -21 98 -27 120 -19 73 -28 305 -18 463 5 84 12 157 15
162 3 4 11 39 19 77 31 149 46 202 85 309 23 61 41 115 41 119 0 4 23 44 50
90 28 46 50 88 50 95 0 6 13 30 28 53 16 23 48 75 71 115 23 39 45 72 49 72 4
0 18 17 32 37 159 237 535 605 824 807 23 15 52 38 66 50 14 13 52 40 85 61
33 21 103 66 155 100 116 76 265 165 275 165 4 0 35 17 69 38 99 62 494 259
556 278 14 4 42 17 62 30 20 13 65 33 100 44 35 11 99 36 143 54 44 18 118 48
165 66 47 17 99 38 115 45 59 26 111 44 145 51 19 3 46 12 60 19 14 7 66 24
115 38 50 14 113 34 140 44 28 10 102 34 165 52 63 18 142 41 175 51 33 9 105
27 160 39 55 13 147 36 205 51 144 40 219 57 330 75 52 9 118 23 145 30 61 18
182 39 330 60 61 8 148 22 195 30 214 40 261 47 355 56 55 5 133 13 173 19 40
5 106 10 145 10 40 1 101 7 137 15 36 8 89 14 118 15 29 0 99 7 155 15 225 33
1302 44 1867 20z M9295 10953 c-88 -20 -275 -100 -415 -179 -39 -21 -156 -96
-226 -144 -47 -32 -204 -170 -307 -269 -102 -99 -107 -105 -91 -122 24 -26 92
-25 150 4 25 12 72 46 103 75 80 75 230 196 268 215 17 9 38 24 47 33 9 9 60
39 114 66 53 28 102 55 109 60 15 12 191 56 260 64 l51 7 0 98 c0 108 1 107
-63 92z M9902 10917 c-5 -7 -12 -36 -16 -66 -8 -61 -24 -97 -56 -126 -12 -11
-36 -37 -52 -58 l-30 -38 50 -57 c27 -32 71 -100 97 -152 47 -94 88 -216 78
-233 -3 -5 5 -19 17 -31 24 -27 44 -142 55 -321 5 -85 2 -128 -11 -190 -9 -44
-20 -120 -24 -170 -14 -175 -64 -467 -99 -584 -16 -53 -37 -132 -46 -176 -10
-44 -33 -119 -51 -167 -19 -49 -34 -94 -34 -100 -1 -23 -37 -121 -72 -198 -20
-41 -41 -93 -48 -115 -6 -22 -20 -58 -30 -80 -9 -22 -23 -65 -29 -95 -13 -60
-162 -364 -275 -560 -73 -126 -240 -385 -273 -423 -18 -20 -33 -42 -33 -47 0
-6 -41 -52 -92 -103 -50 -50 -108 -114 -128 -142 -38 -50 -294 -315 -360 -371
-65 -56 -209 -163 -241 -180 -18 -9 -50 -29 -72 -45 -22 -16 -44 -29 -49 -29
-5 0 -55 -22 -111 -49 -117 -56 -196 -81 -255 -81 l-41 0 1 -77 c2 -93 -13
-133 -71 -194 -23 -24 -41 -47 -41 -51 0 -4 17 -10 38 -13 20 -4 51 -10 67
-15 57 -16 121 -19 180 -10 117 19 164 29 212 44 26 8 75 23 108 32 79 23 270
113 342 162 32 22 97 66 144 98 244 166 584 498 789 770 41 54 93 122 116 151
23 28 64 98 92 155 29 59 66 119 88 142 40 40 84 113 152 251 22 44 53 103 69
131 17 28 34 62 38 75 4 13 28 66 51 117 24 50 44 94 44 97 0 3 20 49 44 102
70 157 88 204 83 225 -3 10 28 119 68 242 40 123 76 242 80 264 4 23 15 52 26
66 10 13 19 34 19 46 0 12 5 30 11 41 17 33 36 153 69 429 24 203 27 331 11
485 -5 61 -13 164 -16 230 -7 181 -22 268 -67 390 -46 127 -72 184 -108 240
-128 196 -166 239 -271 308 -76 51 -124 70 -137 54z M4145 10332 c-34 -7 -43
-21 -65 -95 -12 -40 -25 -82 -31 -95 -17 -43 -59 -201 -59 -224 0 -13 5 -29
12 -36 16 -16 1115 -17 1151 -1 19 8 30 30 51 102 77 253 89 324 62 346 -10 9
-157 11 -557 10 -299 -1 -553 -4 -564 -7z M7817 9717 c-24 -15 -57 -52 -92
-107 -30 -47 -55 -88 -55 -92 0 -4 -20 -35 -44 -70 -24 -35 -57 -88 -74 -118
-16 -30 -59 -109 -95 -175 -35 -66 -75 -145 -88 -175 -12 -30 -28 -62 -36 -71
-19 -23 -16 -32 21 -57 24 -17 45 -22 72 -20 l38 3 76 150 c83 164 144 276
171 315 9 14 31 51 48 84 18 32 45 75 60 95 16 20 37 52 47 71 11 19 41 64 68
99 45 60 47 66 30 78 -29 21 -104 16 -147 -10z M7035 8133 c-4 -21 -13 -50
-21 -65 -8 -15 -14 -36 -14 -46 0 -11 -6 -42 -14 -68 -8 -27 -22 -85 -31 -129
-10 -44 -23 -100 -30 -125 -37 -133 -69 -380 -78 -587 l-3 -73 33 -11 c37 -12
86 -5 102 15 6 7 15 82 21 167 14 227 27 311 70 469 5 19 19 80 30 135 22 111
36 159 74 254 24 60 25 66 9 83 -12 14 -31 18 -78 18 l-63 0 -7 -37z M6905
6478 c-11 -6 -22 -12 -24 -14 -3 -3 22 -85 42 -134 5 -14 13 -38 18 -55 27
-103 125 -304 170 -350 l30 -30 25 30 c13 17 40 49 59 72 19 23 35 47 35 53 0
6 -22 37 -48 68 -27 31 -58 71 -69 87 -22 31 -86 188 -99 238 -3 15 -14 32
-24 37 -25 13 -90 12 -115 -2z" fill="#DA241E"/>
        <path d="M9539 11111 c-43 -14 -71 -32 -121 -79 l-48 -45 0 -121 0 -122 48
-46 c66 -66 112 -82 218 -76 l85 4 64 65 c68 67 80 91 91 177 4 29 10 55 15
58 24 14 -79 137 -141 169 -39 20 -168 30 -211 16z M8410 10230 c-45 -25 -136
-27 -169 -4 -19 14 -41 15 -134 10 -213 -12 -382 -27 -467 -42 -47 -8 -108
-14 -135 -14 -28 0 -82 -7 -120 -15 -39 -8 -93 -15 -120 -15 -28 0 -66 -5 -85
-10 -19 -6 -62 -15 -95 -20 -169 -28 -321 -63 -535 -126 -63 -19 -142 -43
-175 -55 -153 -54 -213 -77 -235 -92 -14 -8 -49 -25 -78 -36 -69 -27 -241
-131 -320 -193 -152 -121 -272 -309 -287 -451 -4 -37 -4 -96 0 -132 5 -55 14
-76 56 -140 28 -42 69 -95 93 -118 52 -52 210 -160 280 -191 28 -13 80 -37
116 -54 36 -17 101 -45 145 -62 44 -17 94 -38 112 -46 17 -8 35 -14 40 -14 5
0 56 -15 114 -34 180 -58 207 -66 219 -66 7 0 26 -6 43 -14 68 -30 237 -76
280 -76 12 0 35 -9 50 -19 23 -15 41 -18 91 -14 56 5 65 3 92 -21 24 -20 53
-29 125 -41 52 -8 128 -26 169 -41 41 -14 95 -29 120 -34 25 -5 68 -16 95 -24
28 -8 68 -20 90 -26 22 -7 45 -16 50 -20 6 -4 53 -22 105 -39 51 -18 117 -44
145 -58 27 -15 67 -35 87 -46 45 -23 133 -108 153 -148 21 -39 19 -139 -2
-186 -31 -68 -103 -151 -167 -191 -107 -69 -152 -92 -217 -112 -35 -10 -109
-34 -164 -54 -55 -19 -116 -36 -135 -36 -19 0 -62 -7 -95 -15 -33 -8 -82 -15
-110 -15 -27 0 -68 -5 -90 -10 -22 -6 -105 -15 -185 -20 -100 -6 -155 -14
-178 -26 -25 -12 -48 -15 -85 -11 -29 3 -164 8 -302 10 -137 3 -261 7 -275 11
-14 3 -83 10 -155 16 -71 5 -148 14 -170 20 -22 5 -67 10 -100 10 -33 1 -80 5
-105 11 -25 5 -81 13 -125 18 -86 10 -156 25 -305 64 -52 14 -126 30 -165 37
-38 6 -97 22 -130 35 -33 12 -85 30 -115 40 -30 9 -87 32 -126 51 -106 50
-108 49 -144 -56 -12 -36 -35 -92 -50 -125 -15 -33 -42 -100 -60 -150 -17 -49
-45 -118 -62 -152 -31 -63 -45 -130 -31 -149 8 -12 175 -66 256 -84 26 -6 114
-19 195 -30 81 -11 171 -25 200 -31 74 -15 181 -27 357 -39 83 -5 159 -12 170
-15 11 -3 122 -10 247 -15 124 -5 277 -14 338 -21 168 -17 591 -7 647 16 30
12 57 15 90 11 86 -10 305 -5 438 9 72 8 156 15 189 15 58 0 114 7 271 35 44
8 139 24 210 36 130 21 308 64 520 125 28 8 66 19 85 24 121 33 207 72 253
118 27 26 55 61 64 77 8 17 28 44 43 60 35 38 215 319 285 445 29 52 98 185
154 295 80 159 101 208 101 242 0 31 -5 46 -20 56 -11 8 -39 32 -62 53 -23 21
-69 57 -103 79 -33 22 -76 52 -96 68 -20 15 -38 27 -41 27 -3 0 -61 26 -129
59 -154 73 -219 101 -232 101 -5 0 -60 20 -121 44 -61 24 -147 54 -191 66 -44
12 -96 28 -115 37 -19 8 -53 21 -76 29 -40 14 -66 20 -181 44 -27 5 -57 14
-68 19 -41 20 -219 65 -315 81 -41 6 -97 18 -125 26 -208 61 -233 66 -269 54
-41 -13 -78 -1 -121 39 -21 20 -66 40 -146 65 -118 37 -254 101 -298 140 -13
11 -37 39 -52 60 -56 76 -33 200 52 284 46 45 197 138 239 148 14 4 57 17 95
31 146 51 214 65 482 103 36 5 88 22 120 40 66 34 100 37 150 13 31 -14 46
-15 123 -5 107 15 651 16 787 2 54 -5 152 -15 218 -20 66 -6 156 -17 200 -24
44 -8 114 -19 155 -26 172 -26 296 -52 324 -65 16 -8 35 -15 42 -15 7 0 33 -6
56 -14 122 -40 135 -33 152 85 9 61 10 122 4 215 -13 202 -22 244 -58 277 -26
23 -39 27 -93 27 -34 0 -100 6 -147 14 -126 21 -338 36 -675 46 -477 15 -603
13 -645 -10z M13130 10199 c-58 -4 -379 -13 -715 -19 -335 -5 -711 -14 -835
-20 -124 -5 -403 -9 -621 -10 -364 0 -397 -1 -411 -17 -9 -10 -25 -56 -37
-103 -18 -74 -19 -97 -11 -180 5 -52 10 -127 10 -165 0 -122 -63 -111 606
-103 319 4 712 13 874 20 390 17 688 17 765 0 118 -26 145 -35 156 -48 10 -13
6 -38 -35 -189 -8 -27 -22 -86 -31 -130 -9 -44 -23 -100 -30 -125 -15 -53 -41
-168 -52 -229 -7 -39 -13 -46 -58 -70 -130 -69 -200 -78 -690 -85 -192 -3
-622 -11 -954 -17 -333 -6 -615 -9 -628 -6 -18 3 -26 -3 -43 -38 -11 -23 -20
-50 -20 -61 0 -11 -31 -115 -70 -232 -38 -117 -70 -223 -70 -237 l0 -25 253 1
c138 0 587 4 997 8 782 9 901 5 989 -25 90 -32 91 -33 34 -234 -29 -101 -48
-185 -63 -280 -4 -25 -12 -58 -18 -75 -22 -63 -41 -132 -47 -170 -13 -76 -59
-104 -220 -137 -110 -22 -164 -24 -1640 -48 l-750 -12 -33 -36 c-38 -42 -96
-159 -106 -217 -4 -22 -14 -48 -22 -59 -8 -11 -14 -35 -14 -52 0 -17 -6 -47
-14 -65 -24 -58 -30 -133 -12 -148 13 -11 197 -11 978 -2 530 7 1253 13 1608
15 744 3 731 2 927 98 92 45 120 65 187 133 88 89 102 116 122 225 15 84 36
171 53 213 6 16 11 42 11 59 0 17 7 54 14 82 8 28 22 87 32 131 9 44 22 103
29 130 7 28 18 75 24 105 21 106 62 285 76 335 13 49 31 129 42 192 5 30 2 34
-61 73 -37 23 -65 47 -63 54 1 6 32 30 68 53 99 64 128 91 138 131 15 62 78
333 90 392 34 159 41 189 55 240 9 30 24 93 32 140 9 47 19 106 24 132 5 27
12 52 15 58 6 10 26 80 51 180 19 76 18 194 -2 235 -20 42 -112 138 -152 159
-34 18 -125 46 -224 70 -72 17 -310 20 -508 5z M3974 9802 c-30 -20 -76 -160
-72 -221 l3 -46 590 0 589 0 22 45 c49 101 67 193 42 218 -9 9 -153 12 -588
12 -316 0 -580 -4 -586 -8z M3868 9449 c-25 -14 -36 -38 -58 -126 -25 -100
-25 -129 -1 -143 28 -14 1117 -14 1159 1 34 12 55 55 87 178 28 111 85 101
-588 101 -374 0 -588 -4 -599 -11z M3741 9094 c-12 -15 -26 -45 -31 -68 -6
-22 -20 -71 -31 -108 -11 -38 -19 -78 -17 -90 l3 -23 604 -3 c662 -2 632 -5
644 56 3 15 13 52 22 82 37 123 39 154 11 172 -6 4 -275 8 -598 8 l-587 0 -20
-26z M3878 8730 c-145 -3 -251 -9 -256 -15 -5 -5 -24 -53 -41 -105 -17 -52
-35 -107 -40 -121 -6 -18 -5 -35 3 -50 l12 -24 601 0 c556 0 604 1 619 17 22
22 94 252 87 277 -3 11 -15 22 -26 25 -25 6 -587 4 -959 -4z M3505 8335 c-14
-13 -25 -31 -25 -39 0 -8 -6 -27 -14 -43 -48 -95 -65 -173 -42 -192 24 -20
1235 -16 1255 4 8 7 22 44 32 82 9 37 25 94 35 125 13 47 14 61 4 73 -11 13
-89 15 -617 15 l-604 0 -24 -25z M3403 7973 c-27 -5 -43 -24 -53 -65 -5 -18
-22 -71 -38 -118 -21 -59 -27 -90 -21 -102 11 -21 69 -29 174 -24 44 2 308 4
587 5 l508 1 16 25 c9 14 27 66 40 117 13 51 26 102 29 114 4 13 0 27 -10 38
-15 15 -69 16 -613 15 -329 -1 -607 -4 -619 -6z M3261 7597 c-19 -9 -31 -32
-52 -102 -15 -49 -33 -105 -41 -123 -9 -24 -10 -37 -2 -50 10 -16 56 -17 619
-20 404 -1 620 1 647 8 44 12 47 17 77 140 11 47 23 94 26 106 4 13 0 27 -10
38 -15 14 -73 16 -628 16 -466 0 -618 -3 -636 -13z M1635 7511 c-11 -5 -56
-19 -100 -31 -44 -12 -111 -33 -150 -45 -38 -13 -97 -29 -130 -36 -66 -14
-113 -36 -128 -60 -13 -20 -3 -60 22 -90 l19 -23 71 18 c39 10 76 16 84 13 7
-3 28 -35 47 -71 58 -116 132 -158 240 -139 30 6 69 16 87 24 26 10 34 10 47
0 23 -20 20 -58 -5 -66 -12 -4 -38 -22 -58 -40 -21 -19 -64 -51 -97 -72 -201
-127 -201 -127 -189 -183 7 -33 51 -73 69 -63 6 4 69 45 139 92 184 123 230
151 248 151 9 0 29 -20 44 -44 32 -51 56 -61 96 -41 39 21 45 48 18 93 -25 41
-131 196 -184 271 -24 32 -35 60 -35 82 0 19 -18 86 -39 149 -37 109 -41 115
-68 117 -15 1 -37 -2 -48 -6z m-7 -160 c7 -4 17 -25 22 -46 15 -67 -15 -108
-78 -108 -59 0 -78 10 -97 53 -15 32 -15 42 -5 55 7 8 18 15 25 15 7 0 32 9
56 20 49 22 58 23 77 11z M14319 7461 c-31 -3 -63 -12 -72 -19 -16 -13 -37
-92 -37 -137 0 -27 54 -67 183 -137 37 -21 85 -51 107 -68 21 -16 41 -30 44
-30 14 0 136 -75 136 -84 0 -5 -35 -6 -87 -1 -49 5 -100 9 -115 10 -16 2 -32
3 -38 4 -5 0 -10 12 -10 26 0 36 -22 73 -68 119 -31 30 -50 39 -85 43 -76 9
-132 -37 -231 -189 -37 -57 -97 -127 -177 -204 -66 -65 -122 -128 -125 -141
-4 -14 -14 -23 -26 -23 -11 0 -47 -19 -79 -42 -140 -101 -256 -190 -279 -212
-14 -13 -36 -27 -50 -31 -33 -10 -60 -34 -60 -55 0 -9 17 -41 38 -71 53 -74
66 -113 44 -132 -27 -24 -102 -58 -119 -55 -8 2 -25 21 -37 43 -77 139 -92
150 -145 107 -20 -16 -37 -38 -39 -50 -3 -21 33 -93 103 -202 23 -36 54 -87
69 -115 15 -27 38 -68 51 -90 14 -22 25 -46 25 -52 0 -32 -8 -24 -264 261
-141 157 -135 154 -229 112 -64 -28 -70 -42 -57 -136 11 -82 37 -222 50 -269
5 -20 14 -79 20 -131 12 -105 24 -126 64 -116 40 10 60 41 66 98 5 50 6 52 65
89 33 21 68 38 79 38 10 1 38 -17 62 -39 l44 -40 37 16 c21 9 44 18 51 21 8 3
18 16 23 29 6 18 16 24 40 24 51 0 89 29 89 67 0 30 -34 99 -80 161 -12 16
-18 35 -15 43 3 7 35 30 71 49 57 30 68 33 76 20 106 -174 110 -180 135 -180
14 0 38 9 54 21 36 26 38 63 5 111 -13 19 -44 73 -70 119 -26 46 -68 119 -92
162 -44 77 -47 97 -18 97 8 0 32 11 52 25 20 14 42 25 47 25 15 0 63 -51 89
-94 60 -98 189 -255 215 -262 54 -15 106 49 80 98 -15 28 -122 174 -163 224
-49 60 -93 129 -89 141 3 7 26 28 53 48 27 20 50 46 52 58 3 19 33 -7 187
-160 101 -101 190 -183 199 -183 23 0 252 238 252 262 0 25 -44 68 -69 68 -13
0 -48 -28 -87 -70 -37 -38 -74 -70 -84 -70 -21 0 -80 61 -80 82 0 9 29 46 65
81 68 68 77 91 48 125 -39 45 -59 39 -133 -37 -38 -39 -75 -71 -83 -71 -22 0
-64 37 -70 61 -5 17 9 36 62 88 38 36 70 73 73 80 3 12 17 8 64 -18 32 -18 73
-43 89 -55 17 -13 38 -25 47 -29 10 -3 57 -33 105 -65 49 -33 98 -63 110 -66
31 -10 57 7 77 49 23 48 12 63 -84 120 -80 47 -91 60 -68 83 15 15 50 15 153
0 44 -6 92 -8 105 -5 30 8 70 64 70 98 0 13 12 35 25 48 14 13 28 34 31 48 8
30 -10 71 -33 80 -56 20 -66 66 -36 159 18 52 18 52 66 57 57 5 82 25 95 76
18 72 22 71 -256 70 -136 -1 -272 -5 -303 -8z m276 -173 c-16 -79 -20 -81 -69
-45 -17 12 -50 31 -73 41 -24 11 -43 23 -43 28 0 4 43 8 96 8 l96 0 -7 -32z
m-297 -291 c19 -40 4 -101 -25 -105 -26 -4 -103 43 -103 62 0 7 15 28 32 45
41 40 77 39 96 -2z m-1438 -1144 c0 -5 23 -32 50 -61 28 -29 50 -59 50 -66 0
-18 -78 -48 -86 -34 -8 13 -33 125 -34 151 0 16 20 26 20 10z M3138 7227 c-24
-25 -98 -201 -98 -234 0 -31 46 -33 669 -33 717 0 656 -8 684 87 33 110 41
161 27 178 -11 13 -88 15 -641 15 -507 0 -630 -3 -641 -13z M3024 6880 c-25
-10 -67 -106 -90 -204 -13 -60 -13 -71 -1 -83 12 -12 111 -14 647 -13 413 0
639 4 652 11 31 17 63 105 85 237 11 65 45 62 -646 61 -344 0 -635 -4 -647 -9z
M2296 6548 c-24 -34 -19 -56 21 -93 48 -44 53 -32 -99 -238 -76 -103 -71 -100
-123 -75 -55 27 -94 18 -110 -26 -11 -31 -18 -23 94 -108 167 -126 211 -146
244 -110 27 30 21 65 -18 99 -26 23 -33 36 -28 50 11 27 178 256 196 267 11 7
27 5 56 -8 41 -19 89 -16 103 7 22 35 7 57 -88 129 -179 135 -217 151 -248
106z M2619 6262 c-79 -148 -202 -368 -220 -393 -28 -40 -24 -72 10 -92 16 -9
40 -17 54 -17 26 0 49 33 120 170 51 99 57 98 57 -15 0 -54 -5 -127 -11 -162
-9 -53 -9 -67 4 -87 17 -25 91 -66 120 -66 18 0 69 74 118 172 17 35 41 77 54
93 12 17 39 63 60 104 l37 74 21 -26 c12 -14 41 -35 65 -46 30 -15 42 -28 42
-43 0 -12 -27 -78 -61 -147 -34 -69 -67 -141 -75 -158 -8 -18 -22 -48 -31 -66
-23 -49 -12 -83 33 -97 51 -17 76 -7 100 42 48 94 124 259 124 266 0 15 39 89
53 100 11 10 24 8 58 -8 59 -26 84 -25 108 6 39 49 29 60 -114 132 -174 86
-245 116 -271 114 -14 -1 -27 4 -30 13 -7 16 -68 37 -89 29 -15 -6 -104 -142
-131 -201 -10 -24 -23 -41 -29 -40 -11 4 -8 191 4 269 5 30 3 57 -4 76 -15 35
-72 72 -111 72 -26 0 -33 -8 -65 -68z M7385 6073 c-76 -10 -100 -23 -145 -79
-25 -31 -60 -72 -77 -91 -40 -42 -43 -87 -12 -165 26 -67 49 -91 125 -134 118
-66 208 -52 301 47 69 73 83 109 83 211 l0 82 -53 51 c-61 59 -143 88 -222 78z
M12400 5898 c-210 -78 -240 -95 -240 -130 0 -10 11 -30 24 -43 21 -21 28 -22
66 -14 23 5 58 16 77 24 20 8 43 15 52 15 19 0 53 -62 80 -150 11 -36 27 -84
36 -108 28 -79 1 -116 -95 -129 -52 -8 -55 -10 -58 -39 -4 -44 30 -84 72 -84
57 0 136 30 176 66 54 49 77 112 62 173 -14 59 -76 236 -88 253 -11 15 -40 82
-49 115 -7 24 -43 73 -53 72 -4 0 -32 -9 -62 -21z M3514 5875 c-24 -37 -11
-69 42 -100 53 -31 53 -33 4 -145 -15 -36 -40 -100 -56 -142 -31 -85 -40 -91
-95 -63 -36 19 -61 8 -78 -34 -17 -39 -2 -66 46 -82 21 -6 43 -15 49 -20 18
-15 212 -79 238 -79 28 0 46 25 46 64 0 19 -10 32 -39 50 -22 14 -42 30 -46
36 -8 12 18 103 48 170 12 25 30 72 42 105 23 65 20 63 101 50 36 -6 43 -4 58
16 34 49 17 81 -59 111 -100 41 -240 88 -261 88 -14 0 -30 -10 -40 -25z
M11995 5743 c-54 -13 -259 -84 -271 -94 -21 -18 -17 -63 14 -142 35 -88 53
-141 63 -187 14 -65 80 -225 100 -242 22 -19 13 -21 193 42 134 46 146 53 146
85 0 78 -60 88 -193 32 -21 -9 -43 -14 -50 -11 -8 3 -21 27 -29 55 l-16 50 46
21 c95 42 107 47 129 53 30 8 37 38 18 75 -15 30 -20 32 -58 27 -23 -2 -69
-12 -102 -22 l-59 -17 -23 27 c-13 14 -23 35 -23 45 0 21 25 50 43 50 7 1 30
9 52 20 22 11 48 19 58 20 53 1 74 51 41 98 -15 21 -36 25 -79 15z M11470
5588 c-19 -5 -51 -13 -70 -19 -85 -22 -160 -107 -160 -181 0 -95 84 -178 181
-178 61 0 158 -29 170 -51 6 -13 6 -26 -1 -39 -20 -38 -54 -50 -154 -57 -83
-5 -98 -9 -108 -26 -14 -28 27 -105 60 -114 30 -7 113 4 126 17 6 6 18 10 29
10 27 0 139 54 159 77 70 78 59 216 -20 265 -69 43 -113 58 -172 58 -68 0
-105 11 -114 35 -15 41 26 66 129 80 28 4 58 14 68 22 21 20 22 61 1 91 -17
24 -60 28 -124 10z M4519 5570 c-88 -16 -149 -89 -149 -179 0 -64 32 -111 115
-171 85 -61 108 -93 93 -126 -10 -21 -18 -24 -65 -24 -43 0 -69 8 -125 37 -81
42 -95 39 -116 -23 -11 -34 -11 -41 6 -63 10 -14 34 -29 53 -33 19 -5 42 -13
51 -18 10 -6 52 -15 93 -21 84 -13 148 -2 197 32 33 24 68 98 68 145 0 51 -37
118 -81 145 -21 13 -39 27 -39 31 0 3 -22 22 -50 42 -56 40 -68 79 -29 91 30
10 123 -3 145 -20 11 -8 33 -15 50 -15 32 0 54 28 54 70 0 52 -177 118 -271
100z M4909 5461 c-16 -13 -23 -29 -23 -55 0 -44 12 -57 61 -65 l38 -7 -1 -61
c0 -34 -5 -68 -11 -75 -6 -7 -13 -38 -17 -68 -8 -63 -25 -129 -38 -147 -6 -8
-19 -8 -42 -2 -45 12 -80 -2 -95 -39 -9 -22 -10 -36 -2 -50 12 -23 17 -25 126
-47 72 -14 173 -38 217 -51 23 -7 58 34 58 66 0 33 -24 55 -70 67 -43 11 -49
41 -26 110 9 26 16 59 16 75 0 15 6 45 14 65 7 21 18 56 22 78 l9 40 57 0 c63
1 73 7 83 46 11 43 -19 63 -135 92 -91 22 -204 47 -214 47 -2 0 -14 -8 -27
-19z M5446 5350 c-38 -12 -85 -57 -102 -97 -18 -41 -18 -104 0 -147 14 -35 90
-96 149 -121 94 -39 85 -151 -10 -132 -68 14 -111 26 -147 42 -47 20 -63 9
-73 -47 -4 -30 -1 -41 20 -62 15 -14 36 -26 49 -26 13 -1 34 -7 48 -15 16 -9
56 -14 116 -15 83 0 94 2 136 29 54 34 72 59 88 119 21 80 -17 144 -130 218
-105 69 -116 82 -98 117 12 24 86 22 163 -4 56 -18 61 -19 72 -2 7 9 13 36 13
59 0 42 -2 44 -47 64 -53 23 -200 35 -247 20z M10425 5352 c-17 -4 -34 -17
-41 -32 -7 -14 -20 -106 -29 -205 -9 -99 -23 -222 -31 -273 -14 -85 -14 -96 1
-118 19 -29 59 -32 95 -7 34 23 40 33 40 69 0 45 18 60 92 73 67 11 98 8 98
-12 0 -5 12 -26 26 -45 25 -32 30 -34 67 -28 22 4 48 11 58 17 23 12 25 61 4
79 -8 7 -15 17 -15 23 0 8 -41 97 -141 302 -6 11 -29 52 -52 90 l-42 70 -50 2
c-28 0 -63 -2 -80 -5z m104 -252 c12 -32 26 -62 31 -65 19 -11 10 -43 -12 -49
-37 -9 -66 -7 -70 7 -7 17 13 167 22 167 4 0 17 -27 29 -60z M5838 5280 c-12
-7 -18 -24 -18 -50 0 -43 -4 -41 89 -57 63 -12 68 -25 48 -131 -9 -49 -17
-108 -17 -131 0 -23 -7 -74 -16 -112 -9 -39 -13 -81 -10 -95 7 -27 40 -44 85
-44 35 0 51 17 51 54 0 16 6 55 14 85 8 31 19 92 26 136 31 220 29 215 96 197
56 -15 88 0 97 45 12 63 -17 79 -176 93 -206 20 -251 21 -269 10z M10100 5275
c-14 -17 -8 -132 10 -196 6 -19 10 -51 10 -73 0 -34 -2 -37 -16 -26 -8 8 -40
56 -72 109 -103 175 -130 196 -222 171 -48 -13 -58 -40 -41 -112 6 -27 11 -73
11 -101 1 -29 5 -72 11 -97 5 -25 14 -74 19 -110 6 -36 20 -95 31 -132 20 -66
21 -68 53 -68 55 0 69 18 67 87 -1 34 -8 86 -16 117 -17 63 -20 146 -6 146 5
0 14 -14 21 -31 8 -17 39 -70 70 -118 31 -47 63 -97 70 -111 25 -48 51 -61
104 -56 31 4 58 13 69 25 19 18 19 25 8 118 -7 54 -19 142 -27 195 -7 53 -14
114 -15 135 0 21 -8 61 -17 88 -17 50 -17 50 -63 53 -32 2 -50 -2 -59 -13z
M6372 5217 c-7 -9 -17 -51 -22 -94 -5 -43 -14 -112 -19 -153 -6 -41 -11 -109
-11 -150 0 -41 -4 -93 -9 -116 -9 -48 0 -78 28 -93 11 -6 85 -16 165 -21 172
-12 186 -9 186 50 0 56 -24 70 -126 70 -102 0 -110 7 -98 87 5 32 14 58 19 58
6 -1 47 -4 93 -9 73 -7 85 -6 103 9 22 21 26 77 6 94 -8 6 -54 16 -103 23 -87
13 -89 14 -92 42 -2 15 -1 39 2 52 7 28 39 31 141 14 78 -13 105 3 105 59 0
22 -6 44 -15 51 -8 7 -61 16 -117 20 -57 5 -130 12 -163 15 -49 6 -63 4 -73
-8z M9480 5219 c-30 -5 -59 -14 -65 -20 -12 -12 -32 -99 -44 -189 -4 -36 -13
-81 -19 -100 -38 -129 -57 -299 -35 -321 6 -6 28 -9 49 -7 40 3 44 7 76 83 12
27 21 31 93 46 44 9 85 14 92 12 7 -3 17 -21 24 -41 6 -21 18 -43 27 -49 22
-18 107 -17 122 2 19 23 3 84 -47 186 -24 51 -53 120 -64 153 -10 34 -32 87
-49 117 -16 29 -30 62 -30 72 0 21 -44 67 -62 66 -7 -1 -38 -5 -68 -10z m45
-219 c18 -30 53 -146 46 -153 -5 -5 -26 -7 -47 -5 l-39 3 2 50 c3 94 19 137
38 105z M6840 5177 c-22 -11 -26 -21 -32 -92 -4 -44 -13 -116 -19 -160 -12
-83 -30 -272 -31 -314 0 -30 17 -41 63 -41 56 0 63 15 70 166 3 74 9 138 13
142 13 12 36 -30 36 -65 0 -23 8 -42 25 -58 51 -52 97 -20 131 91 10 32 22 63
26 69 5 5 8 -71 8 -170 -1 -161 0 -180 16 -192 10 -7 29 -13 43 -13 56 0 56
-3 61 292 3 150 1 285 -3 299 -9 30 -31 39 -93 39 -52 0 -66 -16 -93 -105 -34
-113 -43 -118 -55 -30 -14 96 -27 127 -63 141 -40 17 -71 17 -103 1z M8854
5171 c-59 -15 -58 -8 -50 -210 7 -199 22 -355 37 -383 16 -29 43 -38 82 -27
46 12 52 33 43 145 -6 73 -5 85 9 90 29 12 69 -31 116 -122 l45 -89 70 0 c63
0 69 2 72 21 2 12 -11 44 -27 72 -17 27 -31 52 -31 56 0 4 -16 31 -35 60 -41
62 -42 67 -14 92 12 10 31 39 41 63 36 80 3 173 -77 218 -35 20 -54 23 -145
22 -58 -1 -119 -4 -136 -8z m191 -131 c55 -21 49 -85 -11 -114 -48 -22 -70
-20 -78 7 -8 30 -8 102 1 110 10 10 58 8 88 -3z M7922 5141 c-72 -34 -122
-103 -122 -171 0 -82 72 -158 183 -192 100 -30 132 -73 86 -114 -18 -16 -35
-19 -103 -17 -44 1 -93 6 -108 12 -34 13 -58 -7 -58 -49 0 -46 10 -61 57 -81
103 -44 267 -13 349 66 22 21 54 94 54 123 0 57 -85 147 -167 178 -26 9 -52
21 -57 26 -6 4 -17 8 -26 8 -20 0 -50 31 -50 52 0 8 9 23 20 33 17 16 32 17
108 12 62 -5 92 -3 100 5 18 18 14 73 -7 99 -18 22 -28 24 -118 27 -81 2 -106
-1 -141 -17z M8441 5141 c-24 -24 -76 -193 -115 -376 -10 -44 -22 -93 -28
-110 -6 -16 -12 -50 -12 -75 l-1 -45 47 -3 c56 -4 88 21 88 68 0 39 27 50 116
50 62 0 66 -1 82 -31 40 -72 50 -80 105 -77 72 4 77 17 43 125 -57 183 -71
225 -78 230 -5 2 -8 13 -8 24 0 10 -9 36 -20 56 -11 21 -20 45 -20 53 0 29
-31 105 -47 118 -27 20 -129 16 -152 -7z m111 -283 c26 -73 21 -88 -33 -88
l-42 0 6 53 c6 64 38 143 44 112 2 -11 13 -46 25 -77z" fill="#1511E4"/>
    </g>
</svg>
